<?xml version="1.0" encoding="utf-8"?>
<!-- Generator: Adobe Illustrator 22.0.1, SVG Export Plug-In . SVG Version: 6.00 Build 0)  -->
<svg version="1.1" id="Layer_1" xmlns="http://www.w3.org/2000/svg" xmlns:xlink="http://www.w3.org/1999/xlink" x="0px" y="0px"
	 viewBox="0 0 360 172" style="enable-background:new 0 0 360 172;" xml:space="preserve">
<style type="text/css">
	.st0{clip-path:url(#SVGID_2_);fill:#FFCB05;}
	.st1{clip-path:url(#SVGID_2_);fill:#54534A;}
</style>
<g>
	<defs>
		<rect id="SVGID_1_" x="5" y="30" width="360" height="360"/>
	</defs>
	<clipPath id="SVGID_2_">
		<use xlink:href="#SVGID_1_"  style="overflow:visible;"/>
	</clipPath>
	<path class="st0" d="M313.5,76.1c1.8-2.1,4.7-6.6,4.5-9.7c-0.1-0.8-0.8-1.4-1.9-1.8c-2-0.7-4.9-0.4-5.7,0.7c0.1-0.1,0.1-0.2,0,0.1
		c-1.2,1.8-0.5,0.8-0.1,0.2c-2.1,3.3-3.7,7.4-4.3,11.2c0,0.1,0,0.1,0,0.2c0,0,0,0.1,0,0.1c0,0,0,0.1,0,0.1
		C305.6,80.2,312.6,77.1,313.5,76.1"/>
	<path class="st0" d="M168.4,85.6c-0.3-0.6-0.6-1.2-1-1.7c-1.1-1.3-2.5-2.3-4.3-3c-0.8-0.3-1.6-0.5-2.4-0.6
		c6.6-7.3,11.9-15.3,14.2-22.9c1.1-3.4,0.5-6.7-1-9.4c-1.1-2-2.6-3.8-4.4-5.1c-0.1-0.1-0.2-0.1-0.2-0.2c-2.3-1.8-4.7-1.5-7.2,0.7
		c-15.7,13.3-34.2,37-40.1,59.8c-0.2,0.8-0.4,1.7-0.6,2.5c-4.2,3.6-9.8,8-11.7,7.2c-0.5-0.2-0.9-0.5-1.2-0.8
		c-1.6-1.4-1.8-3.5-0.8-5.9c4.1-7.7,11.5-16.2,13.2-18.8c0.2-0.3-0.1-0.7-0.6-0.9c-0.2-0.1-0.4-0.1-0.6-0.2c-0.1,0-0.1,0-0.2,0
		c0,0,0,0,0,0c-1.9-0.3-4.4-0.3-6.5,0.9c-0.8-3.7-2.4-7.5-5.9-9.1c-4.1-1.9-9.7-1.6-16.3,2.1c-8.7,4.9-16.7,14.1-20.9,22.8
		c-2.7,2.1-18.5,14-29.3,8.2c-2.1-1.1-3.7-2.5-5-4.3c-6.7-8.9-3.8-25.4,9-41.4C59.8,46.5,73.1,37.8,80.4,43c1.1,0.8,1.8,1.7,2.2,2.7
		c1.3,3.2-0.2,7-0.6,8c0,0.1-0.1,0.2-0.1,0.3c-1.1,2.5-2.3,5.1-2.8,7.6c-0.4,1.7-0.3,3.1,0,4.2c0.6,1.8,2.1,3.1,4.4,4.4
		c1.7,1,3.2,0.6,3.9-1c3.6-8,8.1-20.9,4.5-28.3c-0.9-1.8-2.2-3.3-4.2-4.3c-2.4-1.2-5.6-1.9-9.2-2c-0.2,0-0.4,0-0.6,0
		c-0.2,0-0.5,0-0.7,0c-0.1,0-0.3,0-0.4,0c-0.1,0-0.3,0-0.4,0c0,0,0,0,0,0C61.9,35.1,41.8,46.1,27,69.2
		c-12.5,19.4-12.7,36.8-5.6,46.5c3.7,5.2,9.5,8.2,16.6,8.2c9.8,0,24.5-9.1,29.1-12c-0.2,1-0.2,2-0.2,2.9c0,2.5,0.7,4.6,2.1,6.1
		c1.7,1.9,4.4,3,8.4,3c10.1,0,17.6-7.9,17.6-7.9s-0.1,1.3,0.4,2.8c0.3,1,0.8,2.1,1.6,3c1.1,1.2,2.8,2.1,5.4,2.1c4.7,0,13-4.9,19-9.4
		c0.2,0.8,0.4,1.6,0.7,2.3c0.3,0.8,0.8,1.6,1.3,2.2c0.1,0.1,0.2,0.2,0.2,0.3c1.8,2.2,4.5,3.7,8,4.3c0,0,1.6,0.3,4.4,0.4
		c1.5,0,2.9-0.2,4.3-0.5c10-1.6,17.3-7.6,23.5-17C169,98.4,170.8,90.6,168.4,85.6 M81.8,112.3c-3.5-3.1,2.2-13.3,6-17.2
		c3.8-4,11.9-10.5,14.6-8.1c0.5,0.4,0.7,1,0.8,1.7c0.5,3.6-3.6,10.2-6.5,13.9c-2.8,3.6-11,12.4-14.7,10
		C81.9,112.5,81.8,112.4,81.8,112.3 M142.9,84.5c11.6-17.6,22-29.8,24.1-29.8c0,0,0.1,0,0.1,0c0,0,0.1,0.1,0.1,0.4
		c0,0.5-0.1,1.3-0.5,2.4c-1.8,5.4-8.5,17.3-21.9,27.9c-1.5,1.2-3.1,2.4-4.7,3.5C141.1,87.2,141.7,86.2,142.9,84.5 M133.1,110.2
		L133.1,110.2c1.6-8.4,16.5-21.1,19.1-22.3c2.2-0.8,3.8-0.8,4.5-0.5c0.8,0.4,1.3,1.1,1.4,2c0.4,2.7-1.6,7.6-6.6,14.3
		c-6.2,8.4-13.7,12.7-16.9,10.3C133.7,113.4,133.1,112.1,133.1,110.2"/>
	<path class="st0" d="M329.1,82.3c0.4-0.5,0.7-0.9,1.1-1.4c1.9-2.4,2.8-3.9,1.1-5.1c-0.2-0.2-0.5-0.3-0.8-0.4
		c-0.4-0.1-0.8-0.2-1.3-0.2c-1.9,0-4.2,0.8-6.2,2.2c-2.7,1.8-4.1,3.5-4.9,6.3c-3.6,5.2-8.8,10.6-12.7,14.7c0.3,3.7,0.6,6.5,1.1,8.5
		c0,0,0,0,0,0c0,0.2,0.1,0.4,0.1,0.5c0,0,0,0,0,0c1.8-2.2,3.4-4.4,4.9-6.5c0.7-0.8,1.3-1.6,2-2.4c1.3-1.6,2.6-3.2,3.8-4.8
		c0.1,0.7,0.1,1.4,0.2,2.2c0,0.3,0.1,0.7,0.1,1c0.2,1.9,0.3,4,0.4,6.1c0,0.1,0,0.1,0,0.2c0.1,1.5,0.1,3,0.1,4.5
		c-0.2,3.1-1.2,6.1-4.9,7.5c-3.7,1.3-6.8,0.3-8.7-2c-0.5-0.6-0.9-1.2-1.2-1.9c-1.1-2-1.8-5.1-2.2-9.9c-0.2-1.2-1-1.5-1.5-1.6
		c-0.1,0-0.2,0-0.2,0c-0.6,0-1.2,0.2-1.9,0.6c-3.3,2-4.8,6-4.2,10c-2.4,1.7-4.5,2.8-5.5,2.4c-0.5-0.2-0.8-0.4-1.2-0.7
		c-1.7-1.3-1.7-3.5-0.8-6c2.7-5.2,6.8-10.7,9.8-14.5c0.4-0.6,0.5-0.6,0.5-0.6c1.3-1.7,2.4-3.1,2.9-3.8c0.2-0.2-0.1-0.5-0.4-0.7
		c-0.2-0.1-0.5-0.2-0.7-0.2c0,0,0,0,0,0c0,0,0,0-0.1,0c-2-0.4-4.5-0.3-6.7,0.9c-0.8-3.7-2.4-7.5-5.9-9.1c-4.1-1.9-9.7-1.6-16.3,2.1
		c-10.3,5.8-19.6,17.8-22.8,27.7c-5.8,6-10.4,9.3-15.6,9.2c-0.2,0-0.4,0-0.7-0.1c-0.1,0-0.1,0-0.2-0.1c0,0,0,0,0,0
		c-0.8-0.2-1.5-0.7-2.2-1.4c-1.7-1.8-2.5-5-2-8c9.4-7.3,19.3-16.4,28-26.5c7.1-7.6,12.9-16.2,15.4-24.2c1.1-3.4,0.5-6.7-1-9.5
		c-1.1-2-2.7-3.8-4.5-5.1c-0.1-0.1-0.2-0.1-0.2-0.2c-2.3-1.8-4.7-1.6-7.3,0.7c-12.9,11-27.7,28.9-35.9,47.5
		c-1.9,4.3-3.5,8.6-4.6,12.9c-0.4,1.5-0.7,2.9-0.9,4.3c-2.7,1.8-5.3,3.5-7.9,5l-0.1,0.1c-4.9,2.8-11.1,4-14.6,4
		c-3-0.1-5.3-0.9-6.8-2.5c-1.1-1.1-1.7-2.7-1.9-4.5c-0.1-0.6-0.1-1.3,0-2c9.6,0.8,16.9-0.7,23.4-7.7c0.1-0.1,0.2-0.3,0.4-0.4
		c0,0,0,0,0,0c0.2-0.2,0.3-0.4,0.5-0.6c0.1-0.1,0.1-0.1,0.2-0.2c0.3-0.3,0.5-0.7,0.8-1c0,0,0.1-0.1,0.1-0.1c0.3-0.4,0.5-0.7,0.7-1.1
		c0,0,0,0,0,0c2.5-4.2,2.9-8.5,1.8-11.2c-0.2-0.6-0.5-1.1-0.9-1.5c-2.2-2.6-4.6-4.3-7.9-6c-0.5-0.3-1.1-0.5-1.7-0.6c0,0,0,0,0,0
		c-0.6-0.1-1.3-0.2-2-0.3h0c-0.3,0-0.6,0-1,0c-0.1,0-0.2,0-0.3,0c-0.2,0-0.5,0-0.7,0.1c-0.1,0-0.3,0-0.4,0c-0.2,0-0.5,0.1-0.7,0.1
		c-0.1,0-0.3,0-0.4,0.1c-0.3,0.1-0.6,0.1-1,0.2c0,0-0.1,0-0.1,0c-7.1,1.8-15.7,8-21.7,18.2c-5,8.6-4.9,16.9-0.7,22.4
		c3.1,4.1,8.5,6.7,15.8,6.6c11.7-0.1,15.8-2.7,27.4-9.5c0.2,0.8,0.5,1.5,0.8,2.2c0.3,0.6,0.6,1.2,1,1.7c0.1,0.1,0.2,0.2,0.2,0.3
		c0.3,0.3,0.5,0.6,0.8,0.9c2.5,2.5,6.3,3.8,11.2,3.9c0.2,0,0.3,0,0.5,0c6.1,0,11.6-2.8,15.9-6.1c0.2,0.8,0.6,1.5,1,2.1
		c0.2,0.2,0.4,0.5,0.5,0.7c1.7,1.9,4.4,3,8.4,3c10.2,0,17.6-7.9,17.6-7.9s-0.1,1.3,0.4,2.8c0.3,1,0.8,2,1.6,2.9
		c1.1,1.2,2.8,2.1,5.4,2.1c0,0,0.6,0,1.3,0c5.7-0.3,10.8-2.7,15.2-6.3c3.1,3.1,7.3,5,12.3,6.1c12.3,2.6,17.9-4.4,19.6-8.9
		c0.9-2,1.2-4.1,1.4-6.1c0-0.3,0-0.6,0-0.8c0-0.1,0-0.1,0-0.2l0,0c0.1-3-0.3-6.1-0.7-9.4c-0.6-4.8-1.2-9.7-0.7-15.3
		C328.8,82.7,328.9,82.5,329.1,82.3 M184.9,100c1.5-3.5,3.9-7,7.1-10.1c3.4-3.6,6.3-4.8,8.1-4.5c0.5,0.1,0.9,0.4,0.9,0.4
		c0.1,0.1,0.2,0.2,0.3,0.3c0,0,0.1,0.1,0.1,0.2c0.2,0.3,0.3,0.7,0.3,1.2c0,1.6-0.8,3.9-2.9,6.3c-2.5,2.8-5.8,6.1-11.7,6.3
		C186.4,100.1,185.7,100.1,184.9,100 M244.3,72.7c3.1-4.3,6-8,8.4-10.9c3.8-4.5,6.5-7,7.5-7c0,0,0.1,0,0.1,0c0,0,0.1,0.1,0.1,0.4
		c0,0.5-0.1,1.3-0.5,2.4c-0.8,2.3-2.5,5.9-5.3,10.1l0,0l-3,4.5l0,0c-5.3,7-11.1,13.4-17.3,19.1c-1.6,1.5-3.2,2.9-4.8,4.3
		C233.7,87.7,239.8,78.9,244.3,72.7 M259.7,112.3c-3.5-3.1,2.2-13.3,6-17.2c3.8-4,11.9-10.5,14.6-8.1c0.5,0.4,0.7,1,0.8,1.7
		c0.5,3.6-3.6,10.2-6.5,13.9c-2.8,3.6-11,12.4-14.7,10C259.9,112.5,259.8,112.4,259.7,112.3"/>
	<path class="st1" d="M169.2,99.9c0.1-0.3,0.2-0.7,0.3-1c0.1-0.2,0.1-0.5,0.2-0.7c0.1-0.3,0.2-0.6,0.2-0.9c0-0.2,0.1-0.3,0.1-0.5
		c1.1-4.8,1.4-11.7-5.1-15c0.9,0.6,1.7,1.2,2.4,2c0.4,0.5,0.7,1.1,1,1.7c2.1,4.4,1,11-3,18.1c0,0.1-0.1,0.1-0.1,0.2
		c-0.2,0.4-0.5,0.8-0.7,1.2c-0.3,0.5-0.6,1-0.9,1.5c-6.2,9.4-13.5,15.4-23.5,17c0,0,0,0,0,0v0c-1.4,0.3-2.8,0.5-4.3,0.5
		c-2.8,0-4.4-0.4-4.4-0.4c-3.5-0.6-6.2-2.1-8-4.3c-0.1-0.1-0.2-0.2-0.2-0.3c-0.3-0.4-0.6-0.9-0.9-1.4c1.3,3,3.2,4.9,5.4,6.2
		c0.1,0.1,0.2,0.1,0.3,0.2c0.3,0.1,0.5,0.3,0.8,0.4c0,0,0.1,0,0.1,0.1c2.6,1.2,5.4,1.5,7.7,1.5c0.1,0,0.2,0,0.4,0
		c1.5,0,2.9-0.2,4.3-0.5c10-1.6,17.3-7.6,23.5-17c1.6-2.4,2.9-4.9,3.9-7.2c0.1-0.3,0.3-0.6,0.4-1
		C169.1,100.2,169.2,100.1,169.2,99.9"/>
	<path class="st1" d="M308.9,80.4c2.1-0.1,5.3-1.7,5.9-2.4c1.8-2.1,4.7-6.6,4.5-9.7c0-0.1,0-0.2,0-0.2c-0.2-1.2-0.8-2.7-3.1-3.5
		c1,0.3,1.8,0.9,1.9,1.8c0.3,3-2.7,7.6-4.5,9.7c-0.9,1-7.8,4.1-7.7,1.1C305.4,80.8,308.2,80.5,308.9,80.4"/>
	<path class="st1" d="M166.7,57.5c0.4-1.1,0.5-1.9,0.5-2.4c0-0.3-0.1-0.4-0.1-0.4c0,0-0.1,0-0.1,0c-2.1,0-12.6,12.2-24.1,29.8
		c-1.1,1.7-1.8,2.7-2.8,4.4c1.7-1.1,3.2-2.3,4.7-3.5C154.3,71.1,163,60.5,166.7,57.5"/>
	<path class="st1" d="M134.6,114.1c-0.2-0.6-0.3-1.2-0.3-2l0,0c1.6-8.4,16.5-21.1,19.1-22.3c2.2-0.8,3.8-0.8,4.5-0.5
		c0.1,0,0.1,0.1,0.2,0.1c-0.2-1-0.6-1.7-1.4-2c-0.7-0.3-2.3-0.3-4.5,0.5c-2.5,1.2-17.5,13.9-19.1,22.3l0,0
		C133.1,112.1,133.7,113.4,134.6,114.1"/>
	<path class="st1" d="M87.7,95.1c-3.8,4-9.5,14.1-6,17.2c0.1,0.1,0.2,0.1,0.3,0.2c-0.9-4.2,3.7-12.1,6.9-15.5
		c3.6-3.8,11.1-9.9,14.2-8.4c-0.1-0.7-0.4-1.3-0.8-1.7C99.6,84.6,91.6,91.1,87.7,95.1"/>
	<path class="st1" d="M45.8,67.6C61,48.5,74.4,39.7,81.7,44.9c0.3,0.2,0.6,0.5,0.9,0.8c-0.4-1-1.1-2-2.2-2.7
		c-7.3-5.2-20.7,3.5-35.9,22.6c-12.7,16-15.6,32.5-9,41.4C30.6,97.8,33.9,82.5,45.8,67.6"/>
	<path class="st1" d="M120.1,115.3c-0.1,0.1-0.3,0.2-0.4,0.3c-0.2,0.2-0.5,0.3-0.7,0.5c-0.2,0.1-0.3,0.2-0.5,0.3
		c-0.2,0.1-0.4,0.3-0.6,0.4c-0.2,0.1-0.4,0.3-0.6,0.4c-0.2,0.1-0.4,0.2-0.5,0.4c-0.2,0.1-0.4,0.3-0.7,0.4c-0.1,0.1-0.3,0.2-0.4,0.2
		c-1.3,0.8-2.6,1.6-4,2.3c0,0-0.1,0-0.1,0.1c-0.3,0.2-0.7,0.4-1,0.5c0,0,0,0,0,0c-2.1,1.1-4.2,1.9-6,2.4c0,0,0,0,0,0
		c-0.9,0.2-1.7,0.3-2.4,0.3c-2.6,0-4.3-0.9-5.4-2.1c-0.7-0.8-1.2-1.7-1.5-2.6c1.6,5.6,5.4,6.6,8.1,6.6c0,0,0.1,0,0.1,0
		c0.1,0,0.1,0,0.2,0c0.2,0,0.4,0,0.5,0c0.1,0,0.2,0,0.3,0c0.9-0.1,1.5-0.3,1.7-0.3c4.6-1.2,10.8-5,15.7-8.6
		c-0.3-0.7-0.6-1.5-0.7-2.3C120.8,114.8,120.5,115,120.1,115.3"/>
	<path class="st1" d="M119.4,86.3L119.4,86.3C119.4,86.3,119.4,86.3,119.4,86.3C119.4,86.3,119.4,86.3,119.4,86.3"/>
	<path class="st1" d="M79.1,65.8c0.7,2.9,2.9,4.7,4.3,5.6c0.4,0.3,0.8,0.5,1.3,0.8c1.7,1,3.2,0.6,3.9-1c2.1-4.8,4.6-11.3,5.5-17.4
		c0-0.1,0-0.2,0-0.2c0.1-0.5,0.1-1,0.2-1.4c0-0.1,0-0.2,0-0.2c0-0.4,0.1-0.8,0.1-1.2c0-0.1,0-0.1,0-0.2c0.1-1.4,0-2.7-0.2-3.9
		c0,0,0,0,0,0c0-0.2-0.1-0.5-0.1-0.7c-0.7-3.4-2.2-5.8-3.9-7.4c0.7,0.7,1.2,1.5,1.7,2.4c1.6,3.3,1.6,7.7,0.8,12.3c0,0,0,0,0,0
		c-0.1,0.3-0.1,0.7-0.2,1c0,0,0,0,0,0.1c-0.1,0.3-0.1,0.7-0.2,1c0,0,0,0.1,0,0.1c-0.1,0.3-0.2,0.7-0.2,1c0,0,0,0,0,0.1
		c-0.5,2.1-1.2,4.2-1.9,6.3c0,0,0,0.1,0,0.1c-0.1,0.3-0.2,0.6-0.3,0.9c0,0.1,0,0.1-0.1,0.2c-0.1,0.3-0.2,0.5-0.3,0.7
		c0,0.1-0.1,0.2-0.1,0.3c-0.1,0.2-0.2,0.5-0.3,0.7c0,0.1-0.1,0.2-0.1,0.3c-0.1,0.2-0.2,0.4-0.3,0.6c0,0.1-0.1,0.2-0.1,0.3
		c-0.1,0.2-0.2,0.4-0.3,0.6c0,0.1-0.1,0.2-0.1,0.3c-0.1,0.2-0.2,0.4-0.3,0.6c0,0.1-0.1,0.2-0.1,0.3c-0.1,0.3-0.2,0.5-0.4,0.8
		c-0.7,1.6-2.2,2-3.9,1C81.2,68.9,79.7,67.6,79.1,65.8"/>
	<path class="st1" d="M94.8,116c0,0-7.4,7.9-17.6,7.9c-4,0-6.7-1.1-8.4-3c-1.2-1.3-1.8-3-2-4.9c0.2,5.1,3,7.5,5.8,8.7
		c1.1,0.5,2.5,0.9,4.1,1c0.3,0,0.6,0,0.8,0.1c0.3,0,0.7,0,1,0c8.1,0,14.4-5,16.7-7C94.7,117.3,94.8,116,94.8,116"/>
	<path class="st1" d="M67,111.8c-4.5,3-19.3,12-29.1,12c-0.4,0-0.8,0-1.1,0c-0.1,0-0.2,0-0.4,0c-0.3,0-0.5,0-0.8-0.1
		c-0.2,0-0.3,0-0.5-0.1c-0.3,0-0.5-0.1-0.8-0.1c-0.2,0-0.4-0.1-0.6-0.1c-0.1,0-0.2,0-0.3-0.1c-5-1-9.1-3.7-12-7.8
		c-0.7-0.9-1.2-1.9-1.8-2.9c1.4,2.9,3,5.2,4.7,6.9c1.5,1.6,3.3,2.9,5.2,3.9c0,0,0.1,0,0.1,0.1c0.1,0,0.2,0.1,0.3,0.1
		c1.1,0.6,1.9,0.8,1.9,0.8s0,0,0,0c2.3,0.8,4.7,1.3,7.4,1.3c8.9,0,21.9-7.5,27.6-11.1c0-0.1,0-0.2,0-0.3v0
		C66.8,113.6,66.8,112.7,67,111.8"/>
	<path class="st1" d="M300.9,101.4c0.5,4.8,1.2,7.9,2.2,9.9c0.3,0.7,0.7,1.3,1.2,1.9c-1-2-1.7-5.1-2.2-9.9c0,0,0,0,0,0
		c0-0.5-0.5-3.6-2.7-3.5C299.9,99.9,300.7,100.2,300.9,101.4"/>
	<polyline class="st1" points="297.5,86.3 297.5,86.3 297.5,86.3 297.5,86.3 	"/>
	<path class="st1" d="M313.4,98.5c-0.6,0.8-1.3,1.6-2,2.4c-1.5,2.1-3.2,4.4-5,6.6c0.7,1.7,1.2,1.9,1.2,1.9c1.8-2.2,3.4-4.4,5-6.6
		c0.7-0.8,1.3-1.6,2-2.4c1-1.2,1.9-2.3,2.9-3.5c0-0.3-0.1-0.7-0.1-1c-0.1-0.8-0.1-1.5-0.2-2.2C316,95.3,314.7,96.9,313.4,98.5"/>
	<path class="st1" d="M213.6,115.8c-0.6,0.3-1.1,0.7-1.7,1c-0.1,0-0.2,0.1-0.2,0.1c-0.2,0.1-0.5,0.3-0.7,0.4c-0.1,0-0.1,0.1-0.2,0.1
		c-0.2,0.1-0.4,0.3-0.7,0.4c-0.1,0-0.2,0.1-0.2,0.1c-0.2,0.1-0.4,0.2-0.6,0.4c-0.1,0-0.1,0.1-0.2,0.1c-0.2,0.1-0.4,0.2-0.6,0.4
		c-0.1,0-0.1,0.1-0.2,0.1c-0.2,0.1-0.4,0.2-0.6,0.3c-0.1,0-0.1,0.1-0.2,0.1c-0.2,0.1-0.4,0.2-0.6,0.3c-0.1,0-0.1,0.1-0.2,0.1
		c-0.2,0.1-0.4,0.2-0.6,0.3c-0.1,0-0.1,0.1-0.2,0.1c-0.2,0.1-0.4,0.2-0.6,0.3c0,0-0.1,0-0.1,0.1c-0.2,0.1-0.4,0.2-0.6,0.3
		c0,0-0.1,0-0.1,0.1c-0.2,0.1-0.4,0.2-0.6,0.3c0,0-0.1,0-0.1,0c-0.2,0.1-0.4,0.2-0.6,0.3c0,0,0,0,0,0c-2.6,1.2-5,2-7.9,2.4
		c0,0,0,0,0,0c-0.2,0-0.5,0.1-0.7,0.1c0,0,0,0-0.1,0c-0.2,0-0.5,0.1-0.7,0.1c0,0,0,0-0.1,0c-0.2,0-0.5,0.1-0.8,0.1c0,0-0.1,0-0.1,0
		c-0.3,0-0.5,0.1-0.8,0.1c0,0-0.1,0-0.1,0c-0.3,0-0.5,0-0.8,0.1c0,0-0.1,0-0.1,0c-0.3,0-0.6,0-0.8,0c0,0,0,0-0.1,0
		c-0.3,0-0.6,0-0.9,0c0,0,0,0,0,0c-0.6,0-1.1,0-1.8,0c-7.3,0.1-12.7-2.5-15.8-6.6c-1.2-1.6-2.1-3.5-2.6-5.5
		c1.4,8.2,7,11.6,12.2,13.1c2.2,0.7,4.7,1,7.5,1c11.5-0.1,15.7-2.6,27-9.2c-0.3-0.7-0.6-1.4-0.8-2.2
		C214.3,115.4,213.9,115.6,213.6,115.8"/>
	<path class="st1" d="M265.6,95.1c-3.8,4-9.5,14.1-6,17.2c0.1,0.1,0.2,0.1,0.3,0.2c-0.9-4.2,3.7-12.1,6.9-15.5
		c3.6-3.8,11.1-9.9,14.2-8.4c-0.1-0.7-0.4-1.3-0.8-1.7C277.5,84.6,269.5,91.1,265.6,95.1"/>
	<path class="st1" d="M245.6,74.7c3.1-4.3,6-8,8.4-10.9c2.5-3,4.6-5.1,5.9-6.2c0.4-1.1,0.5-1.9,0.5-2.4c0-0.3-0.1-0.4-0.1-0.4
		c0,0-0.1,0-0.1,0c-1,0-3.7,2.6-7.5,7c-2.5,2.9-5.3,6.6-8.4,10.9c-4.5,6.1-10.6,15-14.7,22.9c1.6-1.4,3.2-2.9,4.8-4.3
		C238,85.2,242.2,79.2,245.6,74.7"/>
	<path class="st1" d="M187.1,100.1c1.5-2.8,3.5-5.7,6.1-8.2c3.4-3.6,6.3-4.8,8.1-4.5c0.1,0,0.2,0.1,0.3,0.1c0-0.5-0.1-0.9-0.3-1.2
		c0,0-0.1-0.2-0.1-0.2c-0.1-0.1-0.2-0.2-0.3-0.3c0,0-0.4-0.2-0.9-0.4c-1.8-0.3-4.7,0.9-8.1,4.5c-3.2,3.1-5.6,6.7-7.1,10.1
		C185.7,100.1,186.4,100.1,187.1,100.1"/>
	<path class="st1" d="M329.9,84.8c0.2-0.2,0.3-0.4,0.5-0.6c0.4-0.5,0.7-0.9,1.1-1.4c1.1-1.4,1.9-2.5,2-3.4c0.3-1.3,0.2-3.4-3-4.1
		c0.3,0.1,0.6,0.2,0.8,0.4c1.7,1.3,0.8,2.7-1.1,5.1c-0.4,0.5-0.7,0.9-1.1,1.4c-0.2,0.2-0.3,0.4-0.5,0.6c-0.6,5.5,0.1,10.5,0.7,15.3
		c0.4,3.3,0.8,6.4,0.7,9.4l0,0c0,0.1,0,0.1,0,0.2c0,0.3,0,0.6,0,0.8c-0.1,2-0.5,4.2-1.4,6.1c-1.7,4.5-7.3,11.5-19.6,8.9
		c-5.1-1.1-9.3-2.9-12.3-6.1c-0.3,0.3-0.6,0.5-1,0.7c-0.1,0.1-0.2,0.1-0.3,0.2c-0.2,0.2-0.5,0.3-0.7,0.5c-0.1,0.1-0.2,0.1-0.3,0.2
		c-0.3,0.2-0.5,0.4-0.8,0.5c-0.1,0-0.1,0.1-0.2,0.1c-0.7,0.4-1.4,0.8-2.2,1.2c-0.1,0-0.1,0.1-0.2,0.1c-0.3,0.2-0.6,0.3-0.9,0.5
		c-0.1,0-0.1,0.1-0.2,0.1c-2.6,1.2-5.4,1.9-8.4,2.1c-0.8,0-1.3,0-1.3,0c-2.6,0-4.3-0.9-5.4-2.1c-0.7-0.8-1.2-1.7-1.5-2.5
		c0.8,3.4,2.6,5.1,4.8,5.9c0.7,0.3,1.5,0.5,2.4,0.6c2.3,0.3,4.7-0.1,6.4-0.6c0,0,0.1,0,0.1,0c0,0,0.1,0,0.1,0c4-1,7.6-3,10.9-5.6
		c3.1,3.1,7.3,5,12.3,6.1c12.3,2.6,17.9-4.4,19.6-8.9c0.9-2,1.2-4.1,1.4-6.1c0-0.3,0-0.6,0-0.8c0-0.1,0-0.1,0-0.2l0,0
		c0.1-3-0.3-6.1-0.7-9.4C329.9,95.3,329.3,90.3,329.9,84.8"/>
	<path class="st1" d="M272.9,118c0-0.1,0-0.3-0.1-0.4c0-0.1,0-0.1,0-0.2c0-0.1,0-0.2,0-0.4c0,0,0-0.1,0-0.1c-0.1-0.6,0-1,0-1
		s0,0-0.1,0.1c0,0,0,0,0,0c0,0,0,0,0,0c0,0,0,0-0.1,0.1c0,0,0,0,0,0c0,0-0.1,0.1-0.1,0.1c0,0,0,0-0.1,0.1c0,0-0.1,0.1-0.1,0.1
		c0,0-0.1,0-0.1,0.1c0,0-0.1,0.1-0.1,0.1c0,0-0.1,0.1-0.1,0.1c0,0-0.1,0.1-0.2,0.1c0,0-0.1,0.1-0.1,0.1c-0.1,0.1-0.1,0.1-0.2,0.2
		c0,0-0.1,0.1-0.1,0.1c-0.1,0.1-0.1,0.1-0.2,0.2c-0.1,0-0.1,0.1-0.2,0.1c-0.1,0.1-0.1,0.1-0.2,0.2c-0.1,0-0.1,0.1-0.2,0.1
		c-0.1,0.1-0.1,0.1-0.2,0.2c-0.1,0.1-0.1,0.1-0.2,0.2c-0.1,0-0.1,0.1-0.2,0.1c-0.1,0.1-0.2,0.1-0.3,0.2c0,0-0.1,0-0.1,0.1
		c-0.5,0.4-1.1,0.8-1.8,1.2c0,0-0.1,0-0.1,0.1c-0.1,0.1-0.3,0.2-0.5,0.3c0,0-0.1,0-0.1,0.1c-0.2,0.1-0.3,0.2-0.5,0.3
		c0,0-0.1,0.1-0.1,0.1c-0.2,0.1-0.3,0.2-0.5,0.3c0,0-0.1,0.1-0.1,0.1c-0.2,0.1-0.3,0.2-0.5,0.3c-0.1,0-0.1,0.1-0.2,0.1
		c-0.2,0.1-0.3,0.2-0.5,0.3c-0.1,0-0.1,0-0.2,0.1c-0.2,0.1-0.4,0.2-0.5,0.2c0,0-0.1,0-0.1,0.1c-0.2,0.1-0.4,0.2-0.6,0.2
		c0,0-0.1,0-0.1,0.1c-0.2,0.1-0.4,0.2-0.6,0.2c0,0-0.1,0-0.1,0c-0.2,0.1-0.4,0.2-0.6,0.2c0,0-0.1,0-0.1,0c-0.2,0.1-0.5,0.1-0.7,0.2
		c0,0,0,0-0.1,0c-1.8,0.5-3.7,0.9-5.8,0.9c0,0,0,0,0,0c-0.1,0-0.1,0-0.2,0c-4,0-6.7-1.1-8.4-3c-0.2-0.2-0.4-0.5-0.5-0.7
		c-0.1-0.1-0.2-0.3-0.3-0.4v0c0,0,0,0,0,0c-0.1-0.2-0.3-0.5-0.4-0.8c0,0,0-0.1-0.1-0.1c-0.1-0.3-0.2-0.5-0.3-0.8
		c-0.3,0.2-0.6,0.4-0.9,0.6c-0.1,0-0.1,0.1-0.2,0.1c-0.2,0.2-0.5,0.3-0.7,0.5c-0.1,0-0.1,0.1-0.2,0.1c-0.2,0.2-0.5,0.3-0.7,0.5
		c-0.1,0-0.1,0.1-0.2,0.1c-0.3,0.2-0.5,0.3-0.8,0.5c0,0-0.1,0.1-0.2,0.1c-0.3,0.2-0.6,0.3-0.9,0.5c0,0-0.1,0-0.1,0.1
		c-0.3,0.2-0.6,0.3-0.9,0.5c0,0-0.1,0-0.1,0c-0.3,0.2-0.7,0.3-1,0.5c0,0,0,0,0,0c-0.4,0.2-0.7,0.3-1.1,0.4c0,0,0,0,0,0h0
		c-2.5,0.9-5.2,1.5-8,1.5c-0.2,0-0.3,0-0.5,0c-5-0.1-8.8-1.4-11.2-3.9c-0.3-0.3-0.6-0.6-0.8-0.9c-0.1-0.1-0.2-0.2-0.2-0.3
		c-0.2-0.2-0.3-0.4-0.4-0.6c0.3,0.6,0.7,1.2,1.1,1.7c0.2,0.3,0.4,0.6,0.6,0.9c0.3,0.4,0.7,0.8,1,1.2c0.6,0.6,1.4,1.2,2.2,1.7
		c5.4,3.6,11.9,2.5,15.9,1.2c3.4-1.1,6.6-2.8,9.2-4.9c0.5,1.2,1.8,3.6,5.4,4.8c1.4,0.5,3,0.7,4.9,0.7c8.1,0,14.4-5,16.7-7
		c-0.1-0.2-0.1-0.4-0.1-0.6C272.9,118.1,272.9,118.1,272.9,118"/>
	<path class="st1" d="M336,116.8c-2.5,0-4.7,2-4.7,4.6c0,2.7,2.1,4.6,4.7,4.6c2.5,0,4.7-2,4.7-4.6
		C340.7,118.8,338.5,116.8,336,116.8 M336,125.3c-2.1,0-3.8-1.6-3.8-3.9c0-2.2,1.6-3.8,3.8-3.8c2.1,0,3.7,1.6,3.7,3.8
		C339.7,123.6,338.1,125.3,336,125.3"/>
	<path class="st1" d="M338.1,120.3c0-1-0.6-1.5-1.9-1.5h-2v5.3h0.8v-2.3h0.9l1.4,2.3h0.9l-1.5-2.3
		C337.5,121.6,338.1,121.2,338.1,120.3 M335,121.1v-1.6h1.1c0.6,0,1.2,0.1,1.2,0.8c0,0.8-0.6,0.9-1.3,0.9H335z"/>
	<path class="st1" d="M184.9,114c-0.1-0.1-0.6-0.9-0.6-4.5c0,0,15.5,2.9,24.5-8.9c5.9-7.8,4-13.3,1.6-16.5c0.2,0.3,0.4,0.7,0.6,1.1
		c1,2.7,0.6,7-1.8,11.2c0,0,0,0,0,0c-0.2,0.4-0.5,0.7-0.7,1.1c0,0-0.1,0.1-0.1,0.1c-0.2,0.3-0.5,0.7-0.8,1c-0.1,0.1-0.1,0.1-0.2,0.2
		c-0.2,0.2-0.3,0.4-0.5,0.6c0,0,0,0,0,0c-0.1,0.1-0.2,0.3-0.4,0.4c-6.6,7-13.8,8.5-23.4,7.7c0,0.7,0,1.4,0,2
		C183.2,111.3,183.9,112.8,184.9,114"/>
	<path class="st1" d="M226.4,109.3c0,0,11.4-7.5,26.5-24.6c13.9-15.6,20.6-27.4,14.8-37.1c1.4,2.7,1.9,6,0.9,9.3
		c-2.5,8-8.3,16.6-15.4,24.2c-8.7,10-18.6,19.2-28,26.5c-0.4,3,0.4,6.2,2,8C227.2,115.6,226.1,113.7,226.4,109.3"/>
	<path class="st1" d="M120.4,86.6c0.4,0.2,0.6,0.5,0.4,0.8c-1.7,2.7-9.1,11.1-13.2,18.8c-1,2.3-0.8,4.4,0.6,5.8
		c-0.1-1,0-3.4,1.9-6.2c2.5-3.8,10.8-15,11.7-16.2C122.6,88.5,121.7,87.1,120.4,86.6"/>
	<path class="st1" d="M286.2,112c-0.1-0.9-0.1-3.4,1.9-6.3c2.5-3.8,10.8-15,11.7-16.2c0.8-1.1-0.3-2.6-1.8-3.1
		c0.1,0,0.1,0.1,0.2,0.1c0.4,0.2,0.6,0.4,0.4,0.7c-0.5,0.8-1.6,2.1-2.9,3.8c0,0-0.1,0.1-0.5,0.6c-3,3.9-7,9.4-9.8,14.5
		C284.7,108.6,284.7,110.7,286.2,112"/>
	<path class="st1" d="M174.8,57.4c-2.3,7.6-7.6,15.6-14.2,22.9c0.8,0.1,1.5,0.3,2.2,0.6c1.7-1.8,11.5-12.3,12.8-23.5
		c0.7-5.2-1.1-8.4-2-9.8c0.1,0.1,0.1,0.2,0.2,0.4C175.3,50.7,175.8,54,174.8,57.4"/>
</g>
</svg>
