<?xml version="1.0" encoding="utf-8"?>
<!-- Generator: Adobe Illustrator 22.0.1, SVG Export Plug-In . SVG Version: 6.00 Build 0)  -->
<svg version="1.1" id="Layer_1" xmlns="http://www.w3.org/2000/svg" xmlns:xlink="http://www.w3.org/1999/xlink" x="0px" y="0px"
	 viewBox="0 0 424.2 85.2" style="enable-background:new 0 0 424.2 85.2;" xml:space="preserve">
<style type="text/css">
	.st0{fill:#0093D0;}
</style>
<g>
	<g>
		<path class="st0" d="M31.5,50.1c2,2,2,5.2,0,7.2L29.8,59c-2,2-5.2,2-7.2,0L11.1,47.5c-2-2-2-5.2,0-7.2l1.7-1.7c2-2,5.2-2,7.2,0
			L31.5,50.1z M30.4,28.2c-2-2-5.2-2-7.2,0l-1.7,1.7c-2,2-2,5.2,0,7.2L33,48.6c2,2,5.2,2,7.2,0l1.7-1.7c2-2,2-5.2,0-7.2L30.4,28.2z
			 M61.1,38.4c-2-2-5.2-2-7.2,0l-1.7,1.7c-2,2-2,5.2,0,7.2l11.5,11.5c2,2,5.2,2,7.2,0l1.7-1.7c2-2,2-5.2,0-7.2L61.1,38.4z M71.5,28
			c-2-2-5.2-2-7.2,0l-1.7,1.7c-2,2-2,5.2,0,7.2l11.5,11.5c2,2,5.2,2,7.2,0l1.7-1.7c2-2,2-5.2,0-7.2L71.5,28z M52.3,16.6
			c2-2,2-5.2,0-7.2l-1.7-1.7c-2-2-5.2-2-7.2,0L31.9,19.2c-2,2-2,5.2,0,7.2l1.7,1.7c2,2,5.2,2,7.2,0L52.3,16.6z M62.7,27
			c2-2,2-5.2,0-7.2L61,18.1c-2-2-5.2-2-7.2,0L42.3,29.6c-2,2-2,5.2,0,7.2l1.7,1.7c2,2,5.2,2,7.2,0L62.7,27z M52.3,57.1
			c2-2,2-5.2,0-7.2l-1.7-1.7c-2-2-5.2-2-7.2,0L31.9,59.7c-2,2-2,5.2,0,7.2l1.7,1.7c2,2,5.2,2,7.2,0L52.3,57.1z M62.7,67.5
			c2-2,2-5.2,0-7.2L61,58.6c-2-2-5.2-2-7.2,0L42.3,70.1c-2,2-2,5.2,0,7.2L44,79c2,2,5.2,2,7.2,0L62.7,67.5z M146.6,57.3
			c0.3,0.5,1.9,2.9,1.9,2.9c-0.9,3.7-3.1,8.4-3.1,8.4l-0.3,0.1c-8.5,3.4-21.7,6.2-35.9,0.5c-8.5-3.4-14.5-10.1-17-18.7
			c-2.5-9-0.8-18.8,4.8-26.3c6.1-8.3,15.9-12.8,29.3-13.5c5-0.3,15.4,1.1,21,4.3l0.5,0.3c0,0,0.2,14,0.1,14.6l-0.2,0.7
			c0,0-4.2,0.1-4.2,0.2l-0.2-1.3c-0.7-4.1-2.6-15-17.8-14.2c-6.5,0.3-11.8,3.6-15.7,8.8c-4.8,6.3-6.2,15-4.1,24.5
			c2.1,9.3,9.1,15.2,14.5,17.3c2.3,0.9,9.5,2.5,14.9,0C139.9,63.5,144.4,60.1,146.6,57.3z M198.3,72.2V23.8c0-1.6,0-4.1-1.7-5.9
			c-0.2-0.2-2.4-2-2.4-2v-2.1l13-2.6l1.2,0.7c0,0-0.1,51.2,0,51.9c0.2,5,3.6,5.3,3.6,5.3v3.1H198.3z M256,69
			c-2.3-0.6-3.5-2.5-3.5-5.8V32.5l-1.2-0.7l-13.1,2.6v2.1c0,0,2.2,1.8,2.5,2c1.7,1.8,1.7,4.3,1.7,5.9v18.3
			c-4.3,3.3-8.2,4.4-10.9,3.1c-2.2-1-3.4-3.6-3.5-7.2V32.5l-1.2-0.7l-13.1,2.6v2.1c0,0,2.2,1.8,2.5,2c1.7,1.8,1.7,4.4,1.7,6v15.6
			c0.1,3,0.3,4,0.6,5.4c0.8,3.4,2.8,5.7,5.7,6.8c4.6,1.7,11.2,0,18.2-4.6v4.2h14.3v-2.7L256,69z M320.9,69c-2.2-0.5-3.4-2.5-3.5-5.8
			V44.4c0-4.3-2.3-12.5-10.8-12.5c-6.3,0-10.6,3.8-12.7,5.8c-1.4-2.9-4-5.8-9.2-5.8c-4,0-7.8,1.5-11.3,4.5v-3.9l-1.2-0.7l-13.1,2.6
			v2.1c0,0,2.2,1.8,2.5,2c1.7,1.8,1.7,4.3,1.7,5.9v27.4h14.2v-2.7l-0.7-0.2c-2.2-0.5-3.3-2.4-3.4-5.8c0,0,0-18.9,0-21.9
			c2.5-2.1,5-2.5,7.7-2.3c2.2,0.2,4.4,1.7,4.4,9.5v23.5h14.2v-2.7L299,69c-2.3-0.5-3.4-2.4-3.5-5.8V44.4c0-0.5-0.1-2.1-0.3-3.1
			c2.6-2.2,5-2.6,7.8-2.4c2.2,0.2,4.4,1.7,4.4,9.5v23.5h14.2v-2.7L320.9,69z M193.6,52c0-6-1.9-11.2-5.6-14.9
			c-3.8-3.8-9.3-5.9-15.8-5.9c-12.3,0-21.5,8.9-21.5,20.7c0,12.6,8.4,20.7,21.5,20.7c6.3,0,11.7-2.1,15.6-6
			C191.5,62.9,193.6,57.7,193.6,52z M172.1,68.3c-8,0-10.2-6.3-10.2-16.4c0-7.4,2.2-16.4,10.2-16.4s10.2,8.9,10.2,16.4
			C182.3,62,180.1,68.3,172.1,68.3z M369,19.3c0-2.9,2.4-5.3,5.3-5.3s5.3,2.4,5.3,5.3c0,2.9-2.4,5.3-5.3,5.3
			C371.4,24.5,369,22.2,369,19.3z M369.7,71.9V44.2c0-1.6,0-4.1-1.6-5.8c-0.2-0.2-2.5-2-2.5-2v-2.1l13.1-2.6l1.2,0.7
			c0,0,0,30.9,0,30.8c0.1,3.4,1.2,5.3,3.4,5.8l0.7,0.2v2.7L369.7,71.9z M362.3,41.3c-2.8-4.9-6.4-8-10.8-9.1
			c-6.1-1.5-12.3,1.2-16.1,3.5V11.9l-1.2-0.7l-13,2.6v2.1c0,0,2.2,1.8,2.5,2c1.6,1.7,1.6,4.1,1.6,5.8v44.8v0.6l0.5,0.3
			c7.4,3.8,17.2,4.4,24.4,1.4c8-3.3,11.4-9,12.9-13.2C365.2,51.3,364.2,44.9,362.3,41.3z M351.4,62.8c-2.3,3.8-6.9,6.1-10.5,5
			c-3.6-1-5.6-4.9-5.5-10.8c0,0,0-13.6,0-16.6c0.1-0.1,0.3-0.1,0.4-0.2c2.2-1.1,6.3-3.2,11.7-0.4c2.9,1.5,5.1,4.3,6.2,7.9
			C355.1,52.4,354.2,58,351.4,62.8z M419.3,67.6l-0.7-0.1c-0.6-0.1-1.7-1.5-1.7-4V45.3c0-5.3-1.7-9.4-4.8-11.6
			c-2.8-2-6.7-2.4-11.2-0.9c-5.3,1.7-13.4,8.8-14.7,10.4l-0.3,0.4L386,44c0.1,0.5,0.7,1.4,1.1,1.7l0.3,0.2h8.8c0,0,0-2.1,0-2.5
			c0-3.6,2.4-5.4,4.4-5.7c2-0.4,3.4-0.2,4.4,0.6c1.4,1.1,2.1,3.7,2.1,7.6v2.3l-18.7,8.3l-0.4,0.2l-0.1,0.4c-1.7,5.2-1.3,9.2,1.1,12
			c3.9,4.3,13.3,4.9,27.1,1.8c1-0.3,3.2-0.5,3.2-0.5C419.3,70.1,419.3,67.6,419.3,67.6z M407.1,52.6v14c-3.1,2.2-6.2,2.4-8.4,0.6
			c-2.4-2-2.9-5.7-1.3-9.2L407.1,52.6z"/>
	</g>
</g>
</svg>
