<?xml version="1.0" encoding="utf-8"?>
<!-- Generator: Adobe Illustrator 21.1.0, SVG Export Plug-In . SVG Version: 6.00 Build 0)  -->
<svg version="1.1" id="Layer_1" xmlns="http://www.w3.org/2000/svg" xmlns:xlink="http://www.w3.org/1999/xlink" x="0px" y="0px"
	 viewBox="0 0 288 85.3" style="enable-background:new 0 0 288 85.3;" xml:space="preserve">
<g>
	<g>
		<path d="M80.2,41.3c-0.4-0.9-1.6-1.6-2.6-1.6h-2c-1,0-2.1,0.7-2.5,1.6L57.4,74.3c-0.4,0.9,0,1.5,1,1.5H62c1.4,0,2.1-0.7,2.5-1.5
			c0.4-0.8,1.3-2.5,1.4-2.9c0.2-0.5,0.9-0.8,1.9-0.8l17,0c1,0,1.6,0.2,1.9,0.8c0.2,0.4,1.1,1.9,1.5,2.8c0.4,0.9,1.2,1.6,2.6,1.6H96
			c1,0,1.4-0.7,1.1-1.4C96.7,73.6,80.2,41.3,80.2,41.3z M70.3,65.5c-1,0-1.4-0.7-1-1.6l6.2-13.3c0.4-0.9,1.1-0.9,1.5,0l6,13.3
			c0.4,0.9-0.1,1.6-1,1.6L70.3,65.5z M202,41.6c0,0.3,0,32,0,32.7c0,0.9,0.8,1.5,1.8,1.5h4.3c1,0,1.8-0.6,1.8-1.6V41.5
			c0-1-0.6-1.8-1.6-1.8h-4.5C202.8,39.7,202,40.3,202,41.6z M129.8,62c-0.6-0.8-0.3-1.7,0.7-2c0,0,3.7-1.1,5.5-2.7
			c1.8-1.6,2.7-3.9,2.7-6.9c0-2-0.3-3.6-1-5c-0.7-1.3-1.7-2.4-2.9-3.3c-1.3-0.8-2.8-1.5-4.6-1.9c-1.8-0.4-4.2-0.5-4.2-0.5
			c-1,0-2.6-0.1-3.5-0.1h-17.9c-1,0-1.8,0.8-1.8,1.8v32.6c0,1,0.8,1.6,1.8,1.6h4.2c1,0,1.8-0.6,1.8-1.6c0,0,0-13,0-13s0,0,0,0
			c0,0,8,0,8,0c1,0,2.2,0.7,2.8,1.5l8.3,11.7c0.8,1,1.5,1.4,2.5,1.4h5.5c1,0,1.1-0.9,0.8-1.4C138.2,73.9,129.8,62,129.8,62z
			 M126.5,55.4c-1.1,0.3-2.3,0.3-2.3,0.3c-1,0-2.6,0.1-3.5,0.1h-8.3c-1,0-1.8-0.8-1.8-1.8v-6.6c0-1,0.8-1.8,1.8-1.8h8.3
			c1,0,2.6,0,3.5,0.1c0,0,1.2,0,2.3,0.3c1.1,0.3,2,0.6,2.6,1.1c0.6,0.5,1.1,1,1.4,1.6c0.3,0.6,0.4,1.3,0.4,2c0,0.7-0.1,1.4-0.4,2
			c-0.3,0.6-0.7,1.2-1.4,1.6C128.4,54.8,127.6,55.1,126.5,55.4z M254.9,39.7c-1,0-1.8,0.6-1.8,1.6c0,0.5,0,20.9,0,20.9
			c0,1-0.6,1.2-1.2,0.5L231,41c-0.7-0.7-1.7-1.3-3-1.3H224c-1.2,0-1.8,0.7-1.8,1.3c0,0.7,0,32.7,0,33.4c0,0.7,0.6,1.3,1.6,1.3h3.9
			c1,0,1.7-0.5,1.7-1.4c0-0.5,0-22,0-22c0-1,0.6-1.2,1.2-0.5l21.8,22.7c0.7,0.7,1.5,1.3,3,1.3h3c1,0,1.8-0.8,1.8-1.8V41.5
			c0-1-0.8-1.8-1.8-1.8H254.9z M169.6,60.1c-0.5,0.9-1.3,0.9-1.7,0l-10.2-18.8c-0.4-0.9-1.3-1.6-2.6-1.6h-5.5c-1,0-1.8,0.8-1.8,1.8
			v32.6c0,1,0.6,1.6,1.8,1.6h3.4c1,0,1.7-0.6,1.7-1.6c0-0.5,0-23.7,0.1-23.7c0,0,12.8,23.7,12.8,23.7c0.5,0.9,1.6,0.9,2.1,0
			c0,0,12.8-23.6,12.9-23.6c0,0,0,23,0,23.6c0,0.9,0.8,1.6,1.7,1.6h4c1,0,1.8-0.5,1.8-1.8V41.5c0-1-0.8-1.8-1.8-1.8h-5.3
			c-1.4,0-2.2,0.7-2.7,1.5L169.6,60.1z"/>
	</g>
	<g>
		<path d="M12.1,57.7c0,17.6,18,18.5,21.6,18.5c11.9,0,17-3.2,17.2-3.4c0.7-0.4,1.7-1.3,1.7-2.9V57.8c0-1.1-0.9-2-2-2h-15
			c-1.1,0-1.9,0.9-1.9,2v1.3c0,1.1,0.7,2,1.9,2h8.7c0.8,0,1.5,0.7,1.5,1.5c0,0,0,5.3,0,5.7c-1.7,0.7-9.5,3-15.8,1.5
			c-9.1-2.2-9.8-9.7-9.8-11.9c0-1.9,0.6-11.3,11.7-12.3c9-0.8,15,2.9,15.1,2.9c1.1,0.6,2.2,0.2,2.8-1c0,0,1.1-2.3,1.1-2.3
			c0.5-0.9,0.3-1.9-0.8-2.7c-0.1,0-6.4-3.5-16.3-3.5C12.7,39,12.1,55.8,12.1,57.7z"/>
	</g>
	<g>
		<g>
			<defs>
				<path id="SVGID_1_" d="M252.9,30.7l-23.6,0c-0.9,0-1.6-0.4-2-1.2c-0.4-0.7-0.4-1.6,0-2.4l11.8-20.4c0.4-0.7,1.2-1.2,2-1.2
					c0.9,0,1.6,0.4,2,1.2l11.8,20.4c0.4,0.7,0.4,1.6,0,2.4C254.5,30.3,253.8,30.7,252.9,30.7z"/>
			</defs>
			<use xlink:href="#SVGID_1_"  style="overflow:visible;fill-rule:evenodd;clip-rule:evenodd;fill:#007DC3;"/>
			<clipPath id="SVGID_2_">
				<use xlink:href="#SVGID_1_"  style="overflow:visible;"/>
			</clipPath>
		</g>
	</g>
</g>
<g>
	<path d="M269.7,69.1c2.3,0,4.1,1.8,4.1,4.1c0,2.3-1.8,4.1-4.1,4.1c-2.3,0-4.1-1.8-4.1-4.1C265.6,70.9,267.4,69.1,269.7,69.1z
		 M269.7,76.7c1.9,0,3.3-1.5,3.3-3.5c0-2-1.4-3.5-3.3-3.5c-1.9,0-3.3,1.5-3.3,3.5C266.4,75.1,267.8,76.7,269.7,76.7z M268.1,70.7
		h1.8c1.1,0,1.7,0.4,1.7,1.4c0,0.8-0.5,1.3-1.2,1.3l1.4,2.1h-0.8l-1.3-2.1h-0.7v2.1h-0.8V70.7z M268.9,72.8h0.9c0.6,0,1-0.1,1-0.8
		c0-0.5-0.5-0.7-1-0.7h-0.9V72.8z"/>
</g>
</svg>
