<?xml version="1.0" encoding="utf-8"?>
<!-- Generator: Adobe Illustrator 21.1.0, SVG Export Plug-In . SVG Version: 6.00 Build 0)  -->
<svg version="1.1" id="Layer_1" xmlns="http://www.w3.org/2000/svg" xmlns:xlink="http://www.w3.org/1999/xlink" x="0px" y="0px"
	 viewBox="0 0 238 171.7" style="enable-background:new 0 0 238 171.7;" xml:space="preserve">
<g>
	<path d="M218.3,131.5c-1.1-1.5-3.1-2.2-5.9-2.2H196l1.4,3.4l-5.5,22.3l-3.1,3.4h16.6c2.8,0,5.1-0.7,6.9-2.2
		c1.8-1.4,3.1-3.6,3.7-6.3l2.9-11.8C219.6,135.1,219.4,133,218.3,131.5 M211.7,137.8l-2.9,11.8c-0.5,1.9-1.6,2.8-3.4,2.8h-5.4
		l4.3-17.2h5.6c0.9,0,1.5,0.2,1.8,0.6C211.8,136.2,211.9,136.9,211.7,137.8"/>
	<polygon points="173.7,152.4 178.5,132.7 181.7,129.3 169.8,129.3 171.2,132.6 165.7,154.9 162.6,158.3 184.7,158.3 187.2,149.8 
		182.7,152.4 	"/>
	<path d="M162.2,130.8c-0.9-1.2-2.7-1.8-5.3-1.8h-8.8c-2.6,0-4.6,0.6-6.1,1.8c-1.5,1.2-2.6,3.1-3.2,5.7l-3.6,14.6
		c-0.6,2.6-0.5,4.5,0.4,5.7c0.9,1.2,2.7,1.8,5.3,1.8h8.8c2.6,0,4.6-0.6,6.1-1.8c1.5-1.2,2.6-3.1,3.2-5.7l3.6-14.6
		C163.2,133.9,163.1,132,162.2,130.8 M155.3,136.4l-3.6,14.6c-0.3,1.2-1,1.7-2.1,1.7h-6c-0.5,0-0.9-0.1-1.1-0.4
		c-0.2-0.2-0.2-0.7-0.1-1.2l3.6-14.6c0.3-1.2,1-1.7,2.1-1.7h6c0.5,0,0.9,0.1,1.1,0.4C155.4,135.4,155.5,135.8,155.3,136.4"/>
	<path d="M126.9,129.3h-17.5l1.4,3.3l-5.5,22.3l-3.1,3.4H114l-1.4-3.3l1.4-5.5h8c2.6,0,4.6-0.6,6.1-1.8c1.5-1.2,2.6-3.1,3.2-5.7
		l1.3-5.2c0.6-2.6,0.5-4.5-0.4-5.7C131.3,129.9,129.5,129.3,126.9,129.3 M125.3,136.7l-1.3,5.2c-0.3,1.2-1,1.7-2.1,1.7h-6.5l2.1-8.5
		h6.6c0.5,0,0.9,0.1,1.1,0.4C125.4,135.8,125.5,136.2,125.3,136.7"/>
	<path d="M93.3,129.3l1.4,3.4L90.2,151c-0.3,1.2-1,1.7-2.1,1.7h-5.3c-0.5,0-0.9-0.1-1.1-0.4c-0.2-0.2-0.2-0.7-0.1-1.2l4.6-18.4
		l3.2-3.5H77.5l1.4,3.3L74.4,151c-0.6,2.6-0.5,4.5,0.4,5.7c0.9,1.2,2.7,1.8,5.3,1.8h8.1c2.6,0,4.6-0.6,6.1-1.8
		c1.5-1.2,2.6-3.1,3.2-5.7l4.6-18.4l3.2-3.5H93.3z"/>
	<polygon points="51.2,132.6 45.7,154.9 42.6,158.3 65.4,158.3 67.5,149.8 63.1,152.4 53.6,152.4 55.1,146.5 65.5,146.5 66.9,140.6 
		56.5,140.6 57.9,135.2 66.6,135.2 69.7,137.6 71.8,129.3 49.8,129.3 	"/>
	<polygon points="27.2,152.4 32.1,132.7 35.3,129.3 23.4,129.3 24.8,132.6 19.3,154.9 16.2,158.3 38.3,158.3 40.7,149.8 36.3,152.4 
			"/>
	<polygon points="122.1,47.7 120.3,49.8 120.3,61.2 120.8,61.2 126,36.6 132.9,28.9 122.1,28.9 	"/>
	<polygon points="122.1,80.4 122.1,93.5 142.8,93.5 148.8,74.7 139.2,80.4 	"/>
	<polygon points="103.4,28.9 106.9,36.3 101.9,59.6 103.8,61.2 115.3,61.2 115.3,49.8 113.4,47.7 113.4,28.9 	"/>
	<polygon points="113.4,79.8 115.3,77.7 115.3,66.2 103.8,66.2 101.7,68.1 100.1,68.1 96.3,86 89.6,93.5 113.4,93.5 	"/>
	<path d="M168.3,58.6c3.1,32-23.6,58.7-55.6,55.6c-24-2.3-43.1-21.5-45.5-45.5c-3.1-32,23.6-58.7,55.6-55.6
		C146.8,15.5,166,34.7,168.3,58.6 M116.8,64.6h-13.6l-2.1,1.8H71.6c1.4,23.3,20.1,42,43.4,43.4V80.4l1.8-2.1V64.6z M116.8,49.2
		l-1.8-2.1V17.6C91.7,19,73,37.7,71.6,61h29.5l2.1,1.8h13.6V49.2z M118.7,62.8h13.6l2.1-1.8h29.5c-1.4-23.3-20.1-42-43.4-43.4v29.5
		l-1.8,2.1V62.8z M163.9,66.5h-29.5l-2.1-1.8h-13.6v13.6l1.8,2.1v29.5C143.8,108.5,162.5,89.8,163.9,66.5"/>
	<path d="M221.6,156c0,0.3-0.1,0.6-0.2,0.8c-0.1,0.3-0.3,0.5-0.5,0.7c-0.2,0.2-0.4,0.4-0.7,0.5c-0.3,0.1-0.6,0.2-0.8,0.2
		c-0.3,0-0.6-0.1-0.8-0.2c-0.3-0.1-0.5-0.3-0.7-0.5c-0.2-0.2-0.4-0.4-0.5-0.7c-0.1-0.3-0.2-0.6-0.2-0.8c0-0.3,0.1-0.6,0.2-0.8
		c0.1-0.3,0.3-0.5,0.5-0.7c0.2-0.2,0.4-0.4,0.7-0.5s0.6-0.2,0.8-0.2c0.3,0,0.6,0.1,0.8,0.2c0.3,0.1,0.5,0.3,0.7,0.5
		c0.2,0.2,0.4,0.4,0.5,0.7C221.5,155.5,221.6,155.8,221.6,156 M221.1,156c0-0.3-0.1-0.6-0.2-0.9c-0.2-0.3-0.4-0.5-0.6-0.7
		c-0.3-0.2-0.6-0.2-0.9-0.2c-0.2,0-0.5,0-0.7,0.1c-0.2,0.1-0.4,0.2-0.6,0.4c-0.2,0.2-0.3,0.4-0.4,0.6c-0.1,0.2-0.1,0.5-0.1,0.7
		c0,0.3,0.1,0.6,0.2,0.9c0.2,0.3,0.4,0.5,0.6,0.6c0.3,0.2,0.6,0.2,0.9,0.2c0.3,0,0.6-0.1,0.9-0.2c0.3-0.2,0.5-0.4,0.6-0.7
		C221.1,156.7,221.1,156.4,221.1,156 M220.3,157.2h-0.5l-0.5-0.9H219v0.9h-0.4v-2.4h0.9c0.1,0,0.3,0,0.4,0.1
		c0.1,0.1,0.2,0.2,0.3,0.3c0.1,0.1,0.1,0.2,0.1,0.4c0,0.2,0,0.3-0.1,0.4c-0.1,0.1-0.2,0.2-0.3,0.2L220.3,157.2z M219.8,155.6
		c0-0.1,0-0.2-0.1-0.3c-0.1-0.1-0.2-0.1-0.3-0.1H219v0.7h0.4c0.1,0,0.2,0,0.3-0.1C219.8,155.8,219.8,155.7,219.8,155.6"/>
</g>
</svg>
