<?xml version="1.0" encoding="utf-8"?>
<!-- Generator: Adobe Illustrator 22.1.0, SVG Export Plug-In . SVG Version: 6.00 Build 0)  -->
<svg version="1.1" id="Layer_1" xmlns="http://www.w3.org/2000/svg" xmlns:xlink="http://www.w3.org/1999/xlink" x="0px" y="0px"
	 viewBox="0 0 424.2 255" style="enable-background:new 0 0 424.2 255;" xml:space="preserve">
<path d="M21.2,241.3c-9.1,0-9.2-6.9-9.2-9.6v-12.6c0-0.8-0.1-1.8,1.6-1.8h4.7c1.5,0,1.4,1.1,1.4,1.8c0,0,0,11.7,0,12.6
	s0.2,3.3,3.5,3.3h7.9c3.2,0,3.4-2.4,3.4-3.3s0-12.6,0-12.6c0-0.7-0.1-1.8,1.4-1.8h4.7c1.7,0,1.6,1.1,1.6,1.8v12.6
	c0,2.7-0.2,9.6-9.3,9.6H21.2z M69,241.3c1.8,0,7.6,0,8.8,0v-22.2c0-0.7,0.1-1.8-1.4-1.8h-4.8c-1.6,0-1.5,1.1-1.5,1.8v15.2
	c-2.2-2.8-5.4-6.4-7.1-8.9c-2.3-3.2-5.7-8.1-8.1-8.1h-8.5c-1.5,0-1.4,1.1-1.4,1.8v20.5c0,0.7-0.2,1.7,1.4,1.7h4.4
	c1.6,0,1.4-1,1.4-1.7v-15.3c4.7,5.7,9.2,11.2,12.4,15.5C66.3,241.4,67.1,241.3,69,241.3z M88,235v-11.2h12c2.5,0,4.1,0.2,4.1,5.9
	c0,1.7,0.3,5.4-3.6,5.4C96.8,235,88,235,88,235z M88.1,241.3v-5l2.5,5c0,0,9.1,0,11.4,0c10.8,0,9.8-5.7,9.8-15c0-9.1-8.7-8.9-10-8.9
	H80.6v23.9H88.1z M114.6,222.4c0,0,0,10.6,0,13.2c0,5.3,3.3,5.8,5,5.8c0.5,0,20.2,0,20.2,0c1.6,0,1.5-1.1,1.5-3
	c0-1.8,0.1-2.9-1.5-2.9c0,0-15.4,0-16,0c-0.4,0-1.7,0.3-1.7-1.2c0-1.1,0-6.3,0-6.3l2.2,4.3c0,0,12.8,0,14.1,0c1.2,0,1.2-0.5,0.9-1.1
	c-0.2-0.6-2.2-4.4-2.2-4.4h-13.6c-1.6,0-1.3-0.6-1.3-2c0-1.5,1.4-1.2,1.8-1.2c0.5,0,15.4,0,15.4,0c1.7,0,1.4-1,1.4-2.9
	c0-2,0.2-3.1-1.4-3.1c0,0-19,0-19.5,0C115.3,217.5,114.6,221.1,114.6,222.4z M166.6,226.6c0,1.2,0,2.4-4.7,2.4c-3.7,0-9.8,0-9.8,0
	v-4.3c0-0.5-0.1-1,1.5-1c1.8,0,9.5,0,9.5,0C166.4,223.7,166.6,224.1,166.6,226.6z M144.2,219.4v21.1c0,0.9,1,0.8,0.6,0.8h6.3
	c0.3,0,1.2-0.1,1.2-1v-9.9c0,0,1.7,3.4,2.6,4.9c0,0,8.5,0,9.2,0c0.6,0,2.3-0.1,2.3,2.8c0,1.1-0.3,3.1,1,3.1h6.2c0.4,0,0.9,0,0.9-1.3
	c0-2.5,0.5-7.5-3.3-8.1c2.3-1.6,3.4-1.8,3.4-6.9c0-7.7-4.2-7.7-7-7.7h-21.3C145.2,217.4,144.2,217.9,144.2,219.4z M209,224.1
	c0.3,0.6,3.5,6.7,3.7,7.2c0.1,0.3,0,0.3-0.4,0.3H205c-0.3,0-0.5-0.1-0.3-0.3c0.3-0.5,3.6-6.6,3.9-7.2C208.7,224,208.9,224,209,224.1
	z M203.9,217.5c0,0-11.3,20.3-12.9,23.4v0.5h8.1c1.1-1.9,4.3-8,4.9-9c0.5,1,2.1,4.8,2.1,4.8h9.8l2.3,4.2h8.1v-0.8
	c-1.6-2.9-9.4-16.9-10.5-19.2c-1.6-3.2-3.2-3.9-4.7-3.9H203.9z M250.9,226.6c0,1.2,0,2.4-4.7,2.4c-3.7,0-9.8,0-9.8,0v-4.3
	c0-0.5-0.1-1,1.5-1c1.8,0,9.5,0,9.5,0C250.8,223.7,250.9,224.1,250.9,226.6z M228.5,219.4v21.1c0,0.9,1,0.8,0.6,0.8h6.3
	c0.3,0,1.2-0.1,1.2-1v-9.9c0,0,1.7,3.4,2.6,4.9c0,0,8.5,0,9.2,0c0.6,0,2.3-0.1,2.3,2.8c0,1.1-0.3,3.1,1,3.1h6.2c0.4,0,0.9,0,0.9-1.3
	c0-2.5,0.5-7.5-3.3-8.1c2.3-1.6,3.4-1.8,3.4-6.9c0-7.7-4.2-7.7-7-7.7h-21.3C229.6,217.4,228.5,217.9,228.5,219.4z M284.1,241.3
	c1.6-3,6-11.2,9-16.6v14.9c0,0.7-0.1,1.7,1.5,1.7h4.3c1.6,0,1.4-1,1.4-1.7v-20.5c0-0.7,0.2-1.7-1.4-1.7h-7.4c-1.2,0-2.8-0.3-4.5,3.3
	c-1.3,2.9-4.2,8.8-6.2,11.9c-1.9-3.1-4.8-9-6.1-11.9c-1.8-3.6-3.4-3.3-4.5-3.3h-7.4c-1.6,0-1.5,1-1.5,1.7v20.5
	c0,0.7-0.1,1.7,1.5,1.7h4.3c1.5,0,1.4-1,1.4-1.7v-14.9c3,5.4,7.4,13.6,9,16.6H284.1z M314.7,235.2c-3.6,0-3.4-3.7-3.4-6.2
	c0-2.2-0.5-5.7,4.1-5.7h7.9c4.7,0,4.2,3.5,4.2,5.7c0,2.5,0.1,6.2-3.5,6.2H314.7z M328.6,241.3c7.2,0,6.8-7.6,6.8-12.5
	c0-4.5,0.6-11.6-8.3-11.6h-15.7c-8.8,0.1-8.3,7.1-8.3,11.6c0,4.9-0.3,12.5,6.8,12.5H328.6z M358.9,241.3c9.1,0,9.3-6.9,9.3-9.6
	v-12.6c0-0.7,0.2-1.8-1.5-1.8H362c-1.5,0-1.4,1.1-1.4,1.8c0,0,0,11.7,0,12.6s-0.2,3.3-3.4,3.3h-7.9c-3.3,0-3.5-2.4-3.5-3.3
	s0-12.6,0-12.6c0-0.7,0.1-1.8-1.4-1.8h-4.7c-1.6,0-1.6,1-1.6,1.8v12.6c0,2.7,0.2,9.6,9.2,9.6H358.9z M393.6,226.6
	c0,1.2,0,2.4-4.7,2.4c-3.7,0-9.8,0-9.8,0v-4.3c0-0.5-0.1-1,1.5-1c1.8,0,9.5,0,9.5,0C393.4,223.7,393.6,224.1,393.6,226.6z
	 M371.2,219.4v21.1c0,0.9,1,0.8,0.6,0.8h6.3c0.3,0,1.2-0.1,1.2-1v-9.9c0,0,1.7,3.4,2.6,4.9c0,0,8.5,0,9.2,0c0.6,0,2.3-0.1,2.3,2.8
	c0,1.1-0.3,3.1,1,3.1h6.2c0.4,0,0.9,0,0.9-1.3c0-2.5,0.5-7.5-3.3-8.1c2.3-1.6,3.4-1.8,3.4-6.9c0-7.7-4.2-7.7-7-7.7h-21.3
	C372.3,217.4,371.2,217.9,371.2,219.4z M407.1,235.2c0,0,0.6,0,1.2,0s0.7,0.2,0.7,0.6v0.1c0,0.3-0.1,0.5-0.7,0.5s-1.2,0-1.2,0V235.2
	z M406.5,239.6c0.2,0,0.6,0,0.6-0.5v-1.7h0.7c0.4,0.6,0.7,1.3,1.3,2.1c0.1,0.1,1.1,0,0.7-0.6c-0.2-0.4-0.6-1.1-0.8-1.5
	c0.8,0,1.1-0.6,1.1-1.4c0-0.7-0.5-1.5-1.4-1.5h-1.9c-0.5,0-0.6,0.1-0.6,0.7v3.8C406.2,239.2,406.2,239.6,406.5,239.6z M404.5,236.8
	c0-1.8,1.6-3.3,3.3-3.3c2,0,3.5,1.4,3.5,3.3s-1.4,3.4-3.4,3.4C406,240.2,404.5,238.8,404.5,236.8z M407.8,241.3
	c2.5,0,4.5-2.1,4.5-4.5s-1.9-4.4-4.4-4.4c-2.2,0-4.4,1.9-4.4,4.4S405.4,241.3,407.8,241.3z M351.2,157c0,0-8.3,6.4-35.3,16.3
	c-23.7,8.7-41.7,10.7-41.7,10.7l0.1-51.6c0-7.7-3.1-15.6-9-22.6c-17.9,4.3-37.7,6.8-58.5,6.8l0,0l0,0c-20.7,0-40.5-2.4-58.4-6.7
	c-5.8,7-8.9,14.8-8.9,22.6l0.1,51.6c0,0-18.1-2-41.7-10.7c-27-9.9-35.3-16.3-35.3-16.3c1.1-23.2,21.8-44.1,53.4-58
	c-31.6-13.9-52.3-34.8-53.4-58c0,0,8.3-6.4,35.3-16.3C121.5,16,139.6,14,139.6,14l-0.1,51.6c0,7.7,3.1,15.6,9,22.6
	c17.9-4.3,37.7-6.8,58.5-6.8l0,0l0,0c20.7,0,40.5,2.4,58.4,6.7c5.9-7,8.9-14.8,8.9-22.6L274.2,14c0,0,18,2,41.7,10.7
	c27,9.9,35.3,16.3,35.3,16.3c-1.1,23.2-21.8,44.1-53.4,58C329.4,112.9,350.1,133.8,351.2,157z M252.7,99
	c-11.2-7-26.5-11.6-45.2-11.6h-0.6l0,0h-0.6c-18.8,0-34,4.6-45.2,11.6c11.2,7,26.5,11.6,45.2,11.6h0.6l0,0h0.6
	C226.2,110.6,241.5,106,252.7,99z"/>
</svg>
