<?xml version="1.0" encoding="utf-8"?>
<!-- Generator: Adobe Illustrator 21.1.0, SVG Export Plug-In . SVG Version: 6.00 Build 0)  -->
<svg version="1.1" id="Layer_1" xmlns="http://www.w3.org/2000/svg" xmlns:xlink="http://www.w3.org/1999/xlink" x="0px" y="0px"
	 viewBox="0 0 174.9 133.4" style="enable-background:new 0 0 174.9 133.4;" xml:space="preserve">
<g>
	<path d="M45.2,90.3c-1.4,1.6-2.9,2.9-4.4,3.8c-0.9,0.5-1.9,1-3.1,1.5h24.2c-0.3-0.2-0.6-0.4-0.8-0.5c-0.8-0.7-1.2-1.5-1.2-2.3
		c0-0.7,0.3-1.5,0.9-2.6c0.5-0.8,5.3-6.4,5.3-6.4l-7.2-9L45.2,90.3z M129,26.5c0,0,2.5,2.5,0.4,5.4c-1.3,1.9-41.6,52-41.6,52
		s-40.3-50.1-41.6-52c-2.1-3,0.4-5.4,0.4-5.4H22.7c0.3,0.1,0.7,0.2,1,0.4c1.6,0.9,3.2,2.2,4.6,3.9l44.3,55.4c0,0,0,0,0,0
		c0,0,1.1,1.7,1.1,1.7c0.3,0.7,0.4,1.3,0.4,2c0,1.4-0.7,2.5-1.9,3.2h31.2c-1.2-0.8-1.9-1.9-1.9-3.2c0-0.7,0.1-1.4,0.4-2
		c0,0,1.1-1.6,1.1-1.7c0,0,0,0,0,0l44.3-55.4c1.4-1.7,2.9-3.1,4.6-3.9c0.3-0.1,0.7-0.3,1-0.4H129z M87.8,78.2l5.3-6.2V59h10.1
		l7.4-8.9H65.1l7.4,8.9h10.1v13L87.8,78.2z M130.4,90.3l-13.7-15.4l-7.2,9c0,0,4.8,5.5,5.3,6.4c0.6,1,0.9,1.8,0.9,2.6
		c0,0.9-0.4,1.6-1.2,2.3c-0.2,0.2-0.5,0.4-0.8,0.5h24.2c-1.2-0.5-2.2-1-3.1-1.5C133.3,93.2,131.8,91.9,130.4,90.3z M50.9,19
		c0,0,25.4,27.5,25.4,27.5h23.1c0,0,25.4-27.5,25.4-27.5c3.6-4,7.2-6.8,10.8-8.6h-23.9c0.9,0.7,1.3,1.7,1.3,2.9
		c0,0.7-0.3,1.5-0.9,2.5c-0.5,0.8-1.3,1.8-2.4,3L87.8,42.6L65.9,19c-1.2-1.3-1.9-2.3-2.4-3c-0.6-1-0.9-1.8-0.9-2.5
		c0-1.2,0.5-2.2,1.3-2.9H40.1C43.7,12.2,47.3,15.1,50.9,19z"/>
	<g>
		<path d="M57.7,123c-1.8,0-3.3-0.4-4.5-1.1c-1.2-0.7-1.8-1.6-1.8-2.7c0-1.1,0.6-2,1.8-2.7c1.2-0.7,2.7-1.1,4.5-1.1
			c1.8,0,3.3,0.4,4.5,1.1c1.2,0.7,1.8,1.6,1.8,2.7c0,1.1-0.6,2-1.8,2.7C61,122.6,59.5,123,57.7,123z M53.2,119.2
			c0,0.8,0.4,1.5,1.2,2c0.8,0.5,1.9,0.8,3.2,0.8c1.3,0,2.4-0.3,3.2-0.8c0.8-0.5,1.2-1.2,1.2-2c0-0.8-0.4-1.5-1.2-2
			c-0.8-0.5-1.9-0.8-3.2-0.8c-1.3,0-2.4,0.3-3.2,0.8C53.6,117.7,53.2,118.3,53.2,119.2z M73,115.5c1.4,0,2.6,0.2,3.3,0.6
			c0.8,0.4,1.2,0.9,1.2,1.6c0,0.7-0.4,1.2-1.2,1.6c-0.8,0.3-2,0.5-3.7,0.5h-3.3v2.6c0,0.1,0,0.2,0.1,0.3c0.1,0.1,0.2,0.1,0.4,0.1
			v0.2h-2.7v-0.2c0.2,0,0.3-0.1,0.4-0.1c0.1-0.1,0.1-0.1,0.1-0.3v-6.2c0-0.1,0-0.2-0.1-0.3c-0.1-0.1-0.2-0.1-0.4-0.1v-0.2H73z
			 M72.5,116.5h-3.1v2.1h3.2c1.1,0,1.9-0.1,2.5-0.3c0.5-0.2,0.8-0.5,0.8-0.8c0-0.4-0.3-0.6-0.8-0.8
			C74.6,116.6,73.7,116.5,72.5,116.5z M83.7,122.8v-0.2c0.2,0,0.3-0.1,0.4-0.1c0.1-0.1,0.1-0.1,0.1-0.3v-5.8h-3.5
			c-0.2,0-0.3,0-0.4,0.1c-0.1,0-0.1,0.1-0.2,0.3h-0.2v-1.6H80c0.1,0.1,0.1,0.2,0.2,0.3c0.1,0,0.2,0.1,0.4,0.1h8.9
			c0.2,0,0.3,0,0.4-0.1c0.1,0,0.2-0.1,0.2-0.3h0.2v1.6h-0.2c-0.1-0.1-0.1-0.2-0.2-0.3c-0.1,0-0.2-0.1-0.4-0.1h-3.6v5.8
			c0,0.1,0,0.2,0.1,0.3c0.1,0.1,0.2,0.1,0.4,0.1v0.2H83.7z M93.4,122.8v-0.2c0.2,0,0.3-0.1,0.4-0.1c0.1-0.1,0.1-0.1,0.1-0.3v-6.2
			c0-0.1,0-0.2-0.1-0.3c-0.1-0.1-0.2-0.1-0.4-0.1v-0.2h2.7v0.2c-0.2,0-0.3,0.1-0.4,0.1c-0.1,0.1-0.1,0.2-0.1,0.3v6.2
			c0,0.1,0,0.2,0.1,0.3c0.1,0.1,0.2,0.1,0.4,0.1v0.2H93.4z M109.7,117.6c0,0,0-0.1,0-0.1c0,0,0-0.1,0-0.1c0-0.1,0-0.1-0.1-0.2
			c-0.1-0.1-0.3-0.2-0.6-0.3c-0.6-0.2-1.1-0.3-1.6-0.4c-0.5-0.1-1-0.1-1.6-0.1c-1.4,0-2.5,0.3-3.3,0.8c-0.8,0.5-1.3,1.2-1.3,2
			c0,0.8,0.4,1.5,1.3,2c0.8,0.5,2,0.8,3.3,0.8c0.9,0,1.8-0.2,2.7-0.5c0.9-0.3,1.3-0.6,1.3-0.8c0,0,0-0.1,0-0.1c0,0,0-0.1-0.1-0.2
			l0.2-0.1l1.7,1.4l-0.2,0.1c-0.1,0-0.2-0.1-0.2-0.1c-0.1,0-0.1,0-0.2,0c0,0-0.2,0.1-0.4,0.2c-0.2,0.1-0.4,0.2-0.6,0.3
			c-0.7,0.3-1.3,0.5-2,0.6c-0.7,0.1-1.4,0.2-2.2,0.2c-1.9,0-3.4-0.4-4.6-1.1c-1.2-0.7-1.8-1.6-1.8-2.7c0-1.1,0.6-2,1.8-2.7
			c1.2-0.7,2.7-1.1,4.5-1.1c1.4,0,2.8,0.2,4.3,0.7c0.3,0.1,0.5,0.2,0.6,0.2c0.1,0,0.1,0,0.2,0c0.1,0,0.1-0.1,0.2-0.1l0.2,0.1
			l-1.3,1.6L109.7,117.6z M113.3,122l-0.2-0.1l1.6-1.5l0.2,0.1c0,0.1,0,0.1-0.1,0.1c0,0,0,0.1,0,0.1c0,0.2,0.5,0.5,1.4,0.8
			c0.9,0.3,1.9,0.5,2.9,0.5c1.1,0,2-0.1,2.6-0.4c0.7-0.2,1-0.6,1-1c0-0.4-0.3-0.6-0.8-0.8c-0.5-0.1-1.5-0.2-2.9-0.3
			c-1.9,0-3.2-0.2-3.9-0.5c-0.8-0.3-1.1-0.8-1.1-1.4c0-0.7,0.5-1.2,1.5-1.7c1-0.4,2.2-0.7,3.8-0.7c1,0,2.2,0.2,3.5,0.5
			c0.4,0.1,0.6,0.2,0.7,0.2c0.1,0,0.1,0,0.2,0c0.1,0,0.2-0.1,0.2-0.1l0.2,0.1l-1.3,1.6l-0.2-0.1c0,0,0,0,0-0.1c0,0,0-0.1,0-0.1
			c0-0.2-0.4-0.5-1.1-0.7c-0.7-0.2-1.5-0.3-2.4-0.3c-1,0-1.8,0.1-2.4,0.3c-0.6,0.2-0.9,0.5-0.9,0.9c0,0.6,1.1,0.9,3.2,0.9
			c0.4,0,0.8,0,1,0c1.6,0.1,2.7,0.3,3.4,0.6c0.7,0.3,1.1,0.8,1.1,1.5c0,0.7-0.5,1.2-1.6,1.7c-1.1,0.5-2.4,0.7-3.9,0.7
			c-1.5,0-3-0.3-4.5-0.9c-0.3-0.1-0.5-0.2-0.6-0.2c0,0-0.1,0-0.1,0C113.5,121.9,113.4,122,113.3,122z"/>
		<path d="M32.8,101.9c0.1-0.1,0.1-0.1,0.1-0.2c0-0.1,0-0.1,0-0.2c0-0.1-0.1-0.2-0.2-0.3c-0.2-0.1-0.4-0.1-0.7-0.2v-0.2h5.6v0.2
			c-0.4,0.1-0.7,0.2-1,0.3c-0.2,0.1-0.4,0.3-0.6,0.5l-7,8.2c-0.1,0.1-0.1,0.1-0.1,0.2c0,0.1,0,0.1,0,0.2c0,0.1,0.1,0.2,0.2,0.3
			c0.1,0.1,0.3,0.1,0.6,0.1v0.2h-6.3l0-0.2c0.3,0,0.5-0.1,0.6-0.1c0.1-0.1,0.2-0.2,0.2-0.3c0,0,0-0.1-0.1-0.2c0-0.1-0.1-0.2-0.2-0.2
			l-7.3-8.2c-0.2-0.2-0.4-0.4-0.7-0.5c-0.2-0.1-0.5-0.2-0.9-0.3v-0.2h5.6v0.2c-0.3,0-0.5,0.1-0.7,0.2c-0.2,0.1-0.3,0.2-0.3,0.3
			c0,0,0,0.1,0,0.2c0,0.1,0.1,0.1,0.1,0.2l6.6,7.3L32.8,101.9 M51.6,111.3c-3.4,0-6.1-0.5-8.3-1.5c-2.2-1-3.3-2.3-3.3-3.8
			c0-1.5,1.1-2.8,3.3-3.8c2.2-1,5-1.5,8.3-1.5c3.4,0,6.2,0.5,8.3,1.5c2.2,1,3.3,2.3,3.3,3.8c0,1.5-1.1,2.8-3.3,3.8
			C57.7,110.8,54.9,111.3,51.6,111.3z M43.3,106c0,1.2,0.8,2.1,2.3,2.9c1.5,0.7,3.5,1.1,6.1,1.1c2.5,0,4.4-0.4,5.9-1.1
			c1.5-0.7,2.3-1.7,2.3-2.8c0-1.2-0.8-2.1-2.3-2.8c-1.5-0.7-3.5-1.1-6-1.1c-2.5,0-4.5,0.4-6,1.1C44.1,103.9,43.3,104.9,43.3,106z
			 M79.1,100.9c2.7,0,4.8,0.3,6.2,0.8c1.5,0.5,2.2,1.2,2.2,2.2c0,0.7-0.4,1.3-1.2,1.8c-0.8,0.5-2,0.8-3.5,1c0.7,0.6,1.7,1.3,2.8,2.3
			c1.7,1.4,2.8,2.1,3.3,2.1h0.2v0.2h-5.5v-0.2h0.2c0.2,0,0.3,0,0.4-0.1c0.1,0,0.2-0.1,0.2-0.2c0,0,0-0.1-0.1-0.1c0,0-0.1,0-0.1-0.1
			l-4.7-3.8h-7.1v3.7c0,0.2,0.1,0.3,0.2,0.4c0.1,0.1,0.4,0.1,0.8,0.2v0.2h-5.1v-0.2c0.4-0.1,0.6-0.1,0.7-0.2
			c0.1-0.1,0.2-0.2,0.2-0.4v-8.7c0-0.2-0.1-0.3-0.2-0.4c-0.1-0.1-0.4-0.1-0.7-0.2v-0.2H79.1z M78.3,102.3h-5.9v3h6.1
			c2.1,0,3.6-0.1,4.6-0.4c1-0.2,1.5-0.6,1.5-1.2c0-0.5-0.5-0.9-1.4-1.1C82.1,102.4,80.5,102.3,78.3,102.3z M99,111.2v-0.2
			c0.4,0,0.6-0.1,0.7-0.2c0.1-0.1,0.2-0.2,0.2-0.4v-8.2h-6.6c-0.4,0-0.6,0-0.8,0.1c-0.1,0.1-0.3,0.2-0.4,0.4h-0.4v-2.3h0.4
			c0.1,0.2,0.2,0.3,0.4,0.4c0.1,0.1,0.4,0.1,0.8,0.1h16.6c0.4,0,0.6,0,0.8-0.1c0.2-0.1,0.3-0.2,0.4-0.4h0.4v2.3h-0.4
			c-0.1-0.2-0.2-0.3-0.4-0.4c-0.1-0.1-0.4-0.1-0.8-0.1h-6.7v8.2c0,0.2,0.1,0.3,0.2,0.4c0.1,0.1,0.4,0.1,0.7,0.2v0.2H99z
			 M133.5,109.8c0.4,0,0.6,0,0.7-0.1c0.1-0.1,0.3-0.2,0.4-0.4h0.4v2.3h-0.4c-0.1-0.2-0.2-0.3-0.4-0.4c-0.1-0.1-0.4-0.1-0.7-0.1
			h-17.3v-0.2c0.4,0,0.6-0.1,0.7-0.2c0.1-0.1,0.2-0.2,0.2-0.4v-8.7c0-0.2-0.1-0.3-0.2-0.4c-0.1-0.1-0.4-0.1-0.7-0.2v-0.2h16.4
			c0.4,0,0.6,0,0.8-0.1c0.2-0.1,0.3-0.2,0.4-0.4h0.4v2.2h-0.4c-0.1-0.2-0.2-0.3-0.3-0.4c-0.2-0.1-0.4-0.1-0.8-0.1h-12.4v3.1h8.1
			c0.4,0,0.6,0,0.8-0.1c0.1-0.1,0.3-0.2,0.4-0.3l0.4,0v2.2l-0.4,0c-0.1-0.2-0.2-0.3-0.4-0.4c-0.1-0.1-0.4-0.1-0.8-0.1h-8.2v3.4
			H133.5z M143.1,110.1c-0.2,0.1-0.3,0.2-0.4,0.3c-0.1,0.1-0.2,0.2-0.2,0.2c0,0,0,0.1,0.1,0.1c0.1,0,0.2,0.1,0.5,0.2l0.1,0.2h-6
			v-0.2c0.8-0.2,1.4-0.4,1.8-0.6c0,0,0.1,0,0.1-0.1l7-4.4l-6-4c-0.3-0.2-0.5-0.3-0.8-0.4c-0.3-0.1-0.7-0.2-1.1-0.3v-0.2h6l0,0.2
			c-0.2,0.1-0.4,0.1-0.5,0.2c-0.1,0-0.1,0.1-0.1,0.1c0,0.1,0,0.1,0.1,0.2c0.1,0.1,0.2,0.2,0.4,0.3l4,2.6l4-2.6
			c0.2-0.1,0.4-0.2,0.4-0.3c0.1-0.1,0.1-0.1,0.1-0.2c0-0.1-0.1-0.2-0.1-0.2c-0.1,0-0.3-0.1-0.5-0.1l0-0.2h6v0.2
			c-0.8,0.2-1.6,0.5-2.5,1.1c-0.1,0-0.1,0.1-0.2,0.1l-5.4,3.5l6.7,4.5c0.3,0.2,0.5,0.3,0.8,0.4c0.3,0.1,0.6,0.2,1.1,0.3v0.2h-6
			l0.1-0.2c0.2-0.1,0.4-0.1,0.5-0.2c0.1,0,0.1-0.1,0.1-0.1c0,0,0-0.1-0.1-0.2c-0.1-0.1-0.2-0.2-0.4-0.3l-4.7-3.1L143.1,110.1z"/>
	</g>
	<path d="M162.1,103.7c0,0.9-0.7,1.6-1.6,1.6c-0.9,0-1.6-0.7-1.6-1.6c0-0.9,0.7-1.6,1.6-1.6C161.4,102.2,162.1,102.9,162.1,103.7z
		 M160.6,102.4c-0.7,0-1.4,0.6-1.4,1.4c0,0.7,0.6,1.4,1.4,1.4c0.8,0,1.4-0.6,1.4-1.4C161.9,103,161.3,102.4,160.6,102.4z
		 M160.6,102.8c0.2,0,0.4,0,0.6,0.1c0.1,0.1,0.2,0.2,0.2,0.4c0,0.1,0,0.2-0.1,0.3c-0.1,0.1-0.2,0.1-0.3,0.2l0.4,0.8H161l-0.4-0.8
		h-0.3v0.8H160v-1.8H160.6z M160.6,103h-0.3v0.6h0.3c0.2,0,0.3,0,0.3-0.1c0.1,0,0.1-0.1,0.1-0.2c0-0.1,0-0.2-0.1-0.2
		C160.9,103.1,160.7,103,160.6,103z"/>
</g>
</svg>
